<svg width="21" height="21" viewBox="0 0 21 21" fill="none" xmlns="http://www.w3.org/2000/svg">
<circle opacity="0.2" cx="10.4357" cy="10.6626" r="9.83936" fill="white" fill-opacity="0.75"/>
<path d="M8.06568 12.7662L9.21873 8.57675H10.6648L8.91125 13.7751H8.03685L8.06568 12.7662ZM7.27296 8.57675L8.43081 12.771L8.45483 13.7751H7.57563L5.82204 8.57675H7.27296ZM14.0952 12.3386C14.0952 12.2393 14.0663 12.1496 14.0087 12.0695C13.951 11.9895 13.8437 11.9158 13.6868 11.8485C13.5331 11.7781 13.3105 11.714 13.019 11.6564C12.7564 11.5987 12.5113 11.5266 12.2839 11.4402C12.0597 11.3505 11.8643 11.2432 11.6978 11.1183C11.5344 10.9934 11.4063 10.846 11.3134 10.6763C11.2206 10.5033 11.1741 10.3063 11.1741 10.0853C11.1741 9.86753 11.2206 9.66254 11.3134 9.47037C11.4095 9.27819 11.5456 9.10844 11.7218 8.9611C11.9012 8.81057 12.119 8.69366 12.3752 8.61038C12.6346 8.5239 12.9261 8.48067 13.2496 8.48067C13.7012 8.48067 14.0888 8.55273 14.4123 8.69686C14.739 8.84099 14.9888 9.03957 15.1617 9.2926C15.3379 9.54243 15.426 9.82749 15.426 10.1478H14.0423C14.0423 10.0133 14.0135 9.89315 13.9558 9.78746C13.9014 9.67856 13.8149 9.59368 13.6964 9.53282C13.5811 9.46877 13.4306 9.43674 13.2448 9.43674C13.0911 9.43674 12.9581 9.46396 12.846 9.51841C12.7339 9.56966 12.6475 9.64012 12.5866 9.7298C12.5289 9.81628 12.5001 9.91237 12.5001 10.0181C12.5001 10.0981 12.5161 10.1702 12.5482 10.2343C12.5834 10.2951 12.6394 10.3512 12.7163 10.4024C12.7932 10.4537 12.8925 10.5017 13.0142 10.5465C13.1391 10.5882 13.2928 10.6266 13.4754 10.6619C13.8501 10.7387 14.1849 10.8396 14.4795 10.9645C14.7742 11.0862 15.008 11.2528 15.181 11.4642C15.3539 11.6724 15.4404 11.9462 15.4404 12.2857C15.4404 12.5163 15.3891 12.7277 15.2867 12.9199C15.1842 13.1121 15.0368 13.2802 14.8447 13.4244C14.6525 13.5653 14.4219 13.6758 14.1528 13.7559C13.887 13.8327 13.5875 13.8712 13.2544 13.8712C12.7708 13.8712 12.3608 13.7847 12.0245 13.6117C11.6914 13.4388 11.4384 13.2194 11.2654 12.9535C11.0956 12.6845 11.0108 12.409 11.0108 12.1272H12.3224C12.3288 12.3162 12.3768 12.4683 12.4665 12.5836C12.5594 12.6989 12.6763 12.7822 12.8172 12.8334C12.9613 12.8847 13.1167 12.9103 13.2832 12.9103C13.4626 12.9103 13.6115 12.8863 13.73 12.8382C13.8485 12.787 13.9382 12.7197 13.9991 12.6364C14.0631 12.55 14.0952 12.4507 14.0952 12.3386Z" fill="#F7F7FA"/>
</svg>
